<?xml version="1.0" encoding="UTF-8"?>
<svg id="Vrstva_1" data-name="Vrstva 1" xmlns="http://www.w3.org/2000/svg" viewBox="0 0 3165.19 1418.36">
  <path d="m3077.55,286.29c-19.12,1.77-32.96,2.6-46.67,4.38-111.13,14.49-218.67-1.48-323.9-37.66-80.94-27.83-161.63-56.42-242.95-83.08-125.2-41.05-252.61-73.81-382.82-94.55-121.77-19.39-244.08-33.44-367.78-27.42-107,5.21-210.12,27.46-308.81,69.95-99.08,42.65-192.87,95.25-284.6,151.54-23.84,14.63-47.36,23.76-75.36,21.78-15.43-1.09-30.99-.2-49.52-.2,3.56-4.19,5.03-7.08,7.38-8.51,122.39-73.96,245.64-146.25,376.54-204.65C1510.31,19.32,1648.21-2.1,1790.77.16c129.97,2.06,258.1,19.85,385.31,45.21,146.69,29.24,289.33,72.58,429.92,123.35,57.85,20.89,116.5,39.66,175.16,58.2,82.47,26.07,166.89,28.43,252.18,18.56,16.82-1.95,33.94-3.23,50.81-2.4,35.14,1.74,52.82,32.63,35.29,63.24-7.85,13.71-19.87,26.01-32.45,35.79-16.64,12.95-35.63,22.88-53.72,33.94-6.03,3.69-12.73,6.34-18.5,10.36-10.11,7.05-10.44,14.58-.27,21.84,6.18,4.41,13.64,7.56,20.99,9.69,16.29,4.72,32.99,8.01,49.31,12.66,47.91,13.66,75.32,44.08,79.2,93.81,7.01,89.7-17,171.13-72.19,242.5-19.37,25.05-45.18,42.51-74.22,55.28-50.37,22.15-103.94,32.1-157.57,41.7-25.06,4.49-50.31,8.01-75.57,11.2-12.58,1.59-25.46,2.56-38.08,1.8-27.36-1.65-46.69-17.44-53-44.09-3.04-12.88-3.37-26.59-3.5-39.94-.32-32.52,2.57-65.04-4.98-97.31-22.67-96.85-107.41-166.34-206.19-168.39-101.18-2.1-190.93,64.29-216.35,161.1-4.26,16.24-5.31,33.52-6.26,50.4-1.03,18.36.1,36.83-.24,55.24-.98,53.15-38.25,92.91-91.61,95.11-19.44.8-39.43-2.67-58.6-6.82-15.74-3.41-30.85-10.22-45.88-16.41-45.05-18.57-89.93-37.58-135.68-56.76,12.16-8.95,25.12-19.42,39.14-28.18,3.66-2.29,11.1-.42,16.02,1.51,30.27,11.89,60.19,24.64,90.47,36.5,19.72,7.72,39.56,15.39,59.89,21.18,10.59,3.02,22.52,3.47,33.57,2.36,27.1-2.73,44.65-22.46,45.59-49.75.49-14.15.27-28.34.09-42.5-1.39-109.46,50.03-188.58,143.35-240.17,123.31-68.17,304.26-25.66,369.86,147.44,11.62,30.65,17.32,62.69,16.81,95.7-.3,19.12-.54,38.28.29,57.37.7,16.31,7.02,22.58,23.04,19.75,19.34-3.42,38.95-8.06,56.98-15.65,56.66-23.86,103.2-61.3,139.67-110.9,11.32-15.39,21.74-31.45,32.5-47.26,27.41-40.3,64.32-65.03,113.59-69.72,3.42-.33,6.75-1.63,10.61-2.6,5.8-21.96,6.67-43.58,1.44-65.23-5.62-23.27-18.87-39.06-43.69-43.53-16.69-3-33.31-6.55-49.74-10.71-17.4-4.4-33.1-12.43-45.9-25.36-26.68-26.97-25.05-63.73,4.98-86.82,12.81-9.85,27.7-16.96,41.54-25.49,12.02-7.41,24.18-14.66,35.72-22.78,5.41-3.8,9.5-9.48,17.66-17.89Zm-149.16,512.46c45.29-6.97,88.04-20.03,120.67-54.35,34.5-36.29,50.74-81.35,62.93-131.12-6.19,1.43-8.91,1.85-11.51,2.68-37.62,12-63.4,38.52-84.87,70.03-26.57,38.99-50.59,79.94-87.21,112.76ZM2089.46,45.6c165.37,28.88,325.45,77.99,485.8,126.06-156.84-61.51-318.15-105.92-485.8-126.06Zm997.71,397.36c-.86,1.21-1.73,2.43-2.59,3.64,7.65,3.8,15.3,7.61,22.95,11.41.63-1.24,1.27-2.47,1.9-3.71-7.42-3.78-14.84-7.56-22.26-11.35Z"/>
  <path d="m92.41,853.53c58.53,13.01,118.92,18.08,178.37,30.65-5.82.41-11.65,1.16-17.47,1.19-59.47.25-118.94.48-178.41.44-7.69,0-15.83-.29-22.99-2.71-21.35-7.22-29.17-29.77-15.89-47.9,6.02-8.23,15.31-14.45,24-20.26,19.02-12.71,23.87-22.76,17.05-44.78-5.43-17.54-12.79-34.47-19.17-51.72-7.36-19.89-15.49-39.56-21.68-59.81-12.31-40.25-3.66-76.53,27.29-104.86,23.91-21.89,49.38-42.66,76.48-60.37,75.81-49.55,159.09-83.11,245.45-109.32,81.57-24.76,165.18-39.1,249.84-47.33,173.62-16.88,347.9-14.16,521.99-17.35,188.28-3.45,376.55-7.89,564.78-13.32,71.43-2.06,142.75-8.07,214.11-12.39,4.86-.29,9.66-1.44,16.25-2.46,6.57-49.73,36.94-89.16,60.6-135.05-22.66-3.47-42.48-7.08-62.45-9.46-85.13-10.14-170.44-16.06-256.32-14.66-102.34,1.68-201.21,20.43-296.44,57.33-45.47,17.62-89.74,38.31-134.55,57.63-6.33,2.73-12.6,5.57-20.49,6.12,3.86-3.17,7.52-6.64,11.62-9.46,95.07-65.25,198.32-111.91,311.58-134.64,72.4-14.53,145.78-20.06,219.66-17.72,160.55,5.09,318.35,28.74,473.35,70.85,17.7,4.81,35.13,10.92,52.2,17.65,9.07,3.58,17.93,8.78,25.42,15.02,16.64,13.86,18.5,35.23,3.01,50.31-10.41,10.14-23.41,18.33-36.49,24.9-36.28,18.22-75.16,29.75-114.9,36.67-55.72,9.7-111.9,16.72-167.89,24.88-4.13.6-8.27,1.2-14.25,2.08,1.52,12.33,2.87,23.97,4.41,35.58,9.4,70.77-1.4,138.45-32.35,202.61-26.4,54.73-68.81,94.38-125.22,127.67,4.36-7.94,6.12-11.83,8.46-15.32,21.29-31.74,44.34-62.42,63.69-95.3,42.99-73.06,56.29-151.91,40.02-235.41-.92-4.74-2.63-9.33-4.31-15.18-16.7,1.07-32.8,1.97-48.88,3.16-197.09,14.57-394.59,17.77-592.07,21.35-167.05,3.02-334.14,4.43-501.17,8.51-128.25,3.13-255.83,14.47-380.64,46.56-96.48,24.81-188.83,60.08-272.95,114.28-23.06,14.86-44.26,32.85-65.22,50.68-23.2,19.73-28.56,44.03-15.86,72.65,10.04,22.62,18.55,45.94,27.08,69.2,4.86,13.25,8.88,26.85,12.43,40.52,7.87,30.3-.63,55.85-23.57,76.84-2.57,2.35-5.03,4.84-7.43,7.37-.33.34-.05,1.27-.05,4.09ZM1999.01,286.17c28.16-3.24,52.57-5.91,76.95-8.9,65.39-8.02,129.9-20.13,192.06-42.65,7.33-2.66,14.28-6.39,21.4-9.63-.29-1.6-.57-3.2-.86-4.8-78.13-26.34-158.33-44.2-240.46-58.47-21.24,39.18-39.09,77.99-49.09,124.45Zm313.09-43.92c4.73-2.3,6.58-3.23,8.45-4.11,20.07-9.37,22.21-30.88-2.05-42.79-12.3-6.04-25.44-10.38-38.21-15.48,4.84,7.23,11.39,10.7,17.77,14.47,22.74,13.46,25.64,22.34,14.04,47.9Z"/>
  <path d="m2912.43,331.23c-33.75,12.17-68.66,19.51-104.47,22.67-63.13,5.56-125.85-1.14-188.63-6.49-56.43-4.8-112.77-9.52-169.52-2.48-89.84,11.15-167.76,46.18-228.04,114.64-39.28,44.6-75.52,91.88-113.2,137.89-20.64,25.2-40.63,51-62.31,75.27-65.41,73.22-144.46,126.73-237.03,159.53-57.88,20.51-118.33,28.16-179.26,31.38-132.9,7.04-265.79,15.01-398.79,19.22-102.56,3.24-205.28,1.33-307.93,1.65-3.98.01-7.96-.6-12.35-3.74,4.3-1.31,8.52-3.31,12.91-3.82,86.45-10.02,172.71-22.5,259.42-29.16,141.14-10.85,282.58-17.66,423.87-26.62,51.61-3.27,102.88-9.78,153.13-22.48,87.43-22.1,161.53-68.05,224.72-131.11,31.47-31.4,59.44-66.43,87.85-100.78,27.52-33.28,52.68-68.53,80.57-101.49,21.45-25.35,44.83-49.17,68.55-72.45,52.49-51.51,117.72-77.01,188.74-89.94,63.35-11.54,126.85-8.95,190.42-2.04,76.68,8.33,153.34,16.78,230.09,24.45,18.94,1.89,38.17.99,57.27,1.29,7.67.12,15.33.02,23,.02.33,1.53.66,3.05,1,4.58Zm-561.92,7.14c35.24-11.19,71.27-19.19,108.21-19.91,46.64-.9,93.32.43,139.98.77,7.05.05,14.1,0,21.14,0-18.85-5.35-37.68-8.09-56.6-9.83-63.98-5.88-127.35-3.3-189.07,16.43-8.27,2.64-15.54,8.46-23.4,12.7-5.31.42-10.62.83-15.93,1.25.23,1.16.47,2.32.7,3.48,4.99-1.63,9.97-3.26,14.96-4.9Z"/>
  <path d="m1839.74,446.98c-5.76,1.68-11.44,3.73-17.28,4.99-70.02,14.99-141.02,23.14-212.23,29.43-110.69,9.78-221.39,19.43-332.16,28.22-104.43,8.29-208.95,15.35-313.42,23.08-9.14.68-18.49,1.24-27.24,3.66-12.82,3.56-16.88,12.73-11.15,24.59,3.34,6.91,8.24,13.23,13.26,19.12,31.77,37.29,60.65,76.49,83.46,120.09,18.27,34.93,48.24,50.36,87.31,48.7,78.51-3.32,156.99-7.84,235.53-9.67,125.26-2.92,250.56-4.32,375.85-5.71,24.63-.27,49.29,2.4,74.86,6.75-3.09,1.72-5.99,4.06-9.3,5.06-62.81,19.04-127.55,25.63-192.69,28.57-146.39,6.61-292.8,12.71-439.22,18.58-24.01.96-48.18.86-72.14-.71-40.9-2.68-74.3-20.96-93.41-57.54-24.81-47.5-56.91-89.44-90.01-131.03-8.69-10.92-16.19-23.44-21.32-36.38-9.35-23.6-1.94-44.78,18.29-60.01,14.73-11.09,31.85-15.42,49.68-16.48,101.05-5.99,202.11-11.68,303.18-17.36,118.03-6.64,236.04-13.54,354.1-19.61,78.41-4.03,156.88-6.78,235.32-10.11l.74,3.74Z"/>
  <path d="m792.53,549.98c-15.41,16.49-30.28,32.41-46.24,49.49-8.06-7.06-14.69-13.09-21.54-18.83-93.18-78.02-245.59-40.47-276.52,86.3-31.34,128.45,74.36,218.68,181.53,207.11,45.48-4.91,83.91-23.86,116.3-59,17.12,14.39,33.66,28.3,52.77,44.36-13.98,12.8-26.01,25.64-39.8,36.17-100.27,76.64-259.16,59.98-338.27-35.91-102.71-124.49-56.54-344.11,138.89-382.32,85.81-16.78,162.96,2.64,226.6,65.6,2.47,2.44,4.64,5.18,6.28,7.03Zm-198.53,340.53c0,.58-.01,1.16-.02,1.73h20.33c0-.58,0-1.16.01-1.73h-20.33Z"/>
  <path d="m827.47,1072.22c6.91-.37,12.42-.92,17.93-.93,45.28-.05,90.56.03,135.84.02,23.57,0,46.54,3.25,68.36,12.64,38.04,16.36,61.97,44.21,66.97,85.95,5.52,46.06-6.33,85.72-46.17,113.58-6.82,4.77-13.99,9.04-22.33,14.39,24.92,37.14,49.17,73.28,74.9,111.63-22.91,4.06-43.12,2.59-63.06,1.29-4.72-.31-9.74-7.43-13.28-12.37-18.12-25.32-36.13-50.73-53.45-76.6-6.17-9.22-13.02-13.22-24.35-12.87-26.08.81-52.21.26-81.05.26v101.19h-60.3v-338.18Zm61.02,185.28c38.27.08,74.83,3.47,111.16-3.34,7.52-1.41,14.99-4.32,21.86-7.78,17.41-8.78,28.3-22.85,32.01-42.29,7.24-37.98-10.72-67.91-48.54-76.74-38.12-8.91-76.88-2.55-116.49-4.33v134.49Z"/>
  <path d="m526.94,1071.76h65.04c51.84,112.09,103.67,224.16,157.21,339.92-21.74,0-40.43-.11-59.12.05-8.23.07-10.41-6.05-13.05-11.84-8.52-18.67-17.33-37.22-25.37-56.09-3.51-8.24-8.31-11.83-17.56-11.76-50.25.38-100.51.45-150.76.02-10.11-.09-15.33,3.66-19.17,12.72-9.35,22.07-19.56,43.78-29.61,66.06h-65.27c53.06-114.12,105.13-226.11,157.65-339.09Zm31.65,64.95c-22.17,49.63-42.5,95.14-63.96,143.17,40.63,0,77.34.03,114.05-.05,3.31,0,6.62-.67,13.07-1.37-21.07-47.3-41.29-92.67-63.16-141.75Z"/>
  <path d="m1227.47,1410.96v-337.98c5.27-.62,9.96-1.63,14.65-1.64,47.43-.08,94.85.02,142.28.03,26.56,0,52.16,5.3,76.42,15.74,65.36,28.11,98.71,79.2,100.22,149.32,1.5,69.75-28.62,122.83-92.01,155.01-23.05,11.7-47.84,18.68-73.42,19.19-55.1,1.11-110.25.34-168.15.34Zm48.88-42.13c38.91,0,75.71,1.96,112.21-.54,38.39-2.63,73.02-16.52,97.35-48.84,59.76-79.38,13.08-191.66-86.61-204.18-38.95-4.89-78.89-1.84-118.38-2.28-1.13-.01-2.27,1.44-4.56,2.99v252.84Z"/>
  <path d="m286.04,1319.13c13.28,12.25,26.1,24.08,39.64,36.57-15.97,22.72-36.05,37.98-60.07,47.15-56.02,21.38-112.44,21.14-167.19-3.64-65.18-29.51-103.4-97.19-97.9-169.07,5.78-75.7,53.3-135.74,125.59-156.98,48.37-14.21,96.42-12.51,143.22,7.4,21.12,8.98,39.18,22.26,55.79,41.48-13.92,12.13-27.54,24-42.92,37.4-2.5-1.95-7.89-6.11-13.23-10.33-38.3-30.19-81.28-35.23-126.3-20.6-49.79,16.19-81.61,65.84-78.65,118.65,2.97,52.98,39.7,97.8,90.79,109.78,45.72,10.72,86.98,2.25,122.05-30.48,2.52-2.36,5.4-4.33,9.17-7.32Z"/>
  <path d="m1716.62,1369.99h204.37v40.15h-252.01c-4.25-16.05-4.91-315.85-.61-337.71h242.21v38.86c-20.95,1.24-42.61.38-64.2.54-21.22.16-42.45.03-63.68.03-21.74,0-43.47,0-66.3,0v103.88h172.84v41.42h-172.63v112.83Z"/>
  <path d="m2380.51,1328.89c-12.69,27.63-25.05,54.58-37.64,81.99h-46.98c.93-13.86,118.67-275.73,152.18-338.44h55.39c51.83,111.53,103.85,223.47,156.95,337.72h-51.78c-12.49-26.18-25.51-53.48-38.76-81.27h-189.36Zm19.69-42.23h149.23c-25.07-55.52-49.18-108.88-74.56-165.08-25.54,56.46-49.39,109.2-74.67,165.08Z"/>
  <path d="m2102.99,1112.04h-117.24v-36.94c13.65-4.74,259.33-6.03,285.2-1.14v37.1h-119.38c-1.08,51.46-.44,100.71-.54,149.95-.1,49.35-.02,98.7-.02,149.33h-48.02v-298.28Z"/>
  <path d="m3163.76,1369.96c.42,9.24.99,16.15.95,23.05-.03,5.47-.83,10.93-1.37,17.44h-237.14v-337.58h48.08v297.09h189.48Z"/>
  <path d="m2794.99,1410.54h-46.47v-337.36h46.47v337.36Z"/>
  <path d="m2839.55,413.83c7.56,34.08,9.42,65.36,31.37,88.63,21.84,23.15,52.32,25.94,85.78,32.8-7.33,2.94-10.58,4.59-14.01,5.54-5.44,1.5-10.97,2.68-16.52,3.73-43.81,8.34-69.85,34.51-78.64,78.16-2.22,11.04-4.72,22.02-9.88,33.43-1.71-7.86-3.56-15.68-5.1-23.57-11.73-60.17-30.27-78.86-90.2-90.9-5.14-1.03-10.22-2.33-15.42-6.84,9.21-2.09,18.36-4.54,27.65-6.19,40.56-7.22,65.76-30.39,74.65-70.95,2.85-13.02,6.09-25.95,10.31-43.84Zm55.59,121.61c.46-1.44.92-2.88,1.39-4.32-11.86-6.17-23.73-12.35-39.33-20.47,9.97,19.12,22.82,24.02,37.94,24.78Z"/>
  <path d="m124.5,594.2c11.96-16.41,24.54-28.57,47.65-29.37,39.51-1.36,75.66-15.53,108.43-37.86,18.58-12.66,37.22-25.26,56.39-38.26-.55,23.78-36.74,68.77-70.26,89.87-38.67,24.35-110.47,35.02-142.21,15.62Z"/>
  <path d="m2777.75,440.89c-22.12,5.99-36.32,17.72-39.16,43.81-5.28-12.01-7.27-22.23-13.3-28.68-6.27-6.7-16.44-9.75-26.8-15.43,21.7-3.73,34.35-15.65,38.11-37.46,6.83,20.28,15.79,36.94,41.15,37.76Z"/>
</svg>